<svg xmlns="http://www.w3.org/2000/svg" width="512" height="512" viewBox="0 0 512 512">
  <!-- Concept D: phoenix tail fan — four feathers fanning up from a stage
       point, doubling as spectrum bars. WxS member colors left to right. -->
  <rect width="512" height="512" rx="115" fill="#101014"/>
  <g transform="translate(256 428)">
    <g transform="rotate(-48)">
      <path d="M 0 0 C 34 -70 34 -190 0 -258 C -34 -190 -34 -70 0 0 Z" fill="#FFBB00"/>
    </g>
    <g transform="rotate(-16)">
      <path d="M 0 0 C 34 -74 34 -204 0 -276 C -34 -204 -34 -74 0 0 Z" fill="#FF66BB"/>
    </g>
    <g transform="rotate(16)">
      <path d="M 0 0 C 34 -74 34 -204 0 -276 C -34 -204 -34 -74 0 0 Z" fill="#33DD99"/>
    </g>
    <g transform="rotate(48)">
      <path d="M 0 0 C 34 -70 34 -190 0 -258 C -34 -190 -34 -70 0 0 Z" fill="#BB88EE"/>
    </g>
  </g>
  <circle cx="256" cy="428" r="36" fill="#101014"/>
  <circle cx="256" cy="428" r="22" fill="#e8e6e3"/>
</svg>
