<svg xmlns="http://www.w3.org/2000/svg" width="512" height="512" viewBox="0 0 512 512">
  <!-- Concept E3 (C+D fusion, asymmetric): ring sits lower-left, tail sweeps
       to the upper right — phoenix in motion. -->
  <rect width="512" height="512" rx="115" fill="#101014"/>
  <g transform="translate(210 344)">
    <g transform="rotate(-10)">
      <path d="M 0 0 C 32 -64 32 -176 0 -238 C -32 -176 -32 -64 0 0 Z" fill="#FFBB00"/>
    </g>
    <g transform="rotate(22)">
      <path d="M 0 0 C 32 -68 32 -190 0 -256 C -32 -190 -32 -68 0 0 Z" fill="#FF66BB"/>
    </g>
    <g transform="rotate(54)">
      <path d="M 0 0 C 32 -68 32 -190 0 -256 C -32 -190 -32 -68 0 0 Z" fill="#33DD99"/>
    </g>
    <g transform="rotate(86)">
      <path d="M 0 0 C 32 -64 32 -176 0 -238 C -32 -176 -32 -64 0 0 Z" fill="#BB88EE"/>
    </g>
  </g>
  <circle cx="210" cy="344" r="72" fill="#101014"/>
  <circle cx="210" cy="344" r="94" fill="none" stroke="#e8e6e3" stroke-width="44"/>
</svg>
