<svg xmlns="http://www.w3.org/2000/svg" width="1024" height="1024" viewBox="0 0 512 512">
  <!-- Ōtori brand mark — "phoenix perched on the Ō".
       Ring = the O / a stage ring / a spinning record.
       Four tail feathers sweep up-right for motion: the WxS member colors
       (Tsukasa gold / Emu pink / Nene green / Rui purple), publicly the four
       functional accents in App.css (library / lyrics / playback / spectrum).
       See docs/design/logo.md for the full rationale + legal boundary. -->
  <rect width="512" height="512" rx="115" fill="#101014"/>
  <g transform="translate(226 350)">
    <g transform="rotate(-14)"><path d="M 0 0 C 30 -60 30 -166 0 -224 C -30 -166 -30 -60 0 0 Z" fill="#FFBB00"/></g>
    <g transform="rotate(16)"><path d="M 0 0 C 30 -64 30 -178 0 -238 C -30 -178 -30 -64 0 0 Z" fill="#FF66BB"/></g>
    <g transform="rotate(46)"><path d="M 0 0 C 30 -64 30 -178 0 -238 C -30 -178 -30 -64 0 0 Z" fill="#33DD99"/></g>
    <g transform="rotate(76)"><path d="M 0 0 C 30 -60 30 -166 0 -224 C -30 -166 -30 -60 0 0 Z" fill="#BB88EE"/></g>
  </g>
  <circle cx="226" cy="350" r="74" fill="#101014"/>
  <circle cx="226" cy="350" r="96" fill="none" stroke="#e8e6e3" stroke-width="44"/>
</svg>
